<svg id="Ebene_1" data-name="Ebene 1" xmlns="http://www.w3.org/2000/svg" width="209" height="37" viewBox="0 0 209 37.23"><defs><style>.cls-1{fill:#00528c;}.cls-2{fill:#c0bbae;}</style></defs><title>sölfmöasmf</title><path class="cls-1" d="M0,37.59V.37H14.13C22.05.37,27.9,3.63,27.9,11.5c0,4.86-2.23,8.07-6.26,10.3l8.9,15v.83H21.43L14.75,25.27H8.28V37.59ZM15.79,18.8a8,8,0,0,0,3.83-6.68c0-3.83-2.85-5.28-6.68-5.28H8.28v12Z" transform="translate(0 -0.36)"/><path class="cls-1" d="M35.77,37.59V.37H57.61V6.84H44.05v8.9H56v6.47h-12v8.91H58.39v6.47Z" transform="translate(0 -0.36)"/><path class="cls-1" d="M61.8,37.59v-.83L75.16.37h9.11L96.8,36.76v.83H88.31l-2-6.06H71.9l-2,6.06ZM84.17,25.06l-5-15.17L74.07,25.06Z" transform="translate(0 -0.36)"/><path class="cls-2" d="M117.17,37.46v-4.9h4.11c5.27,0,7.58-2.9,7.58-9.29v-18h-7.38V.36h13.17V23.27c0,8.1-4.08,14.19-12.78,14.19Z" transform="translate(0 -0.36)"/><path class="cls-2" d="M145.46,37.52V.36h25V5.27H151.26V15.45h16.79v5H151.26V32.61h20.29v4.91Z" transform="translate(0 -0.36)"/><path class="cls-2" d="M190.13,37.52V5.27H176.82V.36H209V5.27H195.92V37.52Z" transform="translate(0 -0.36)"/></svg>
